<svg width="348" height="248" viewBox="0 0 348 248" fill="none" xmlns="http://www.w3.org/2000/svg">
<path d="M346.083 230.462C346.045 230.564 345.968 230.646 345.869 230.692C345.771 230.737 345.658 230.741 345.556 230.703L20.172 109.476C20.0705 109.438 19.9882 109.362 19.9432 109.263C19.8982 109.164 19.8941 109.051 19.932 108.95C19.9698 108.848 20.0463 108.765 20.1449 108.72C20.2434 108.675 20.3559 108.67 20.4576 108.708L345.842 229.935C345.944 229.973 346.026 230.05 346.071 230.149C346.116 230.248 346.121 230.36 346.083 230.462Z" fill="#F2F2F2"/>
<path d="M172.753 0H95.2188C89.1366 0.0068905 83.3056 2.42905 79.0049 6.73508C74.7041 11.0411 72.285 16.8794 72.2781 22.969V29.9859C72.1189 29.942 71.9518 29.9358 71.7899 29.9677C71.6279 29.9996 71.4756 30.0688 71.3449 30.1698C71.2143 30.2707 71.1088 30.4007 71.037 30.5495C70.9651 30.6982 70.9287 30.8617 70.9307 31.0269V36.4229C70.9287 36.5882 70.9651 36.7516 71.037 36.9004C71.1088 37.0491 71.2143 37.1791 71.3449 37.2801C71.4756 37.381 71.6279 37.4502 71.7899 37.4821C71.9518 37.514 72.1189 37.5078 72.2781 37.464V45.6342C72.1189 45.5904 71.9518 45.5842 71.7899 45.6161C71.6279 45.648 71.4756 45.7171 71.3449 45.8181C71.2142 45.9191 71.1088 46.049 71.0369 46.1978C70.9651 46.3466 70.9287 46.51 70.9307 46.6753V60.1652C70.9287 60.3305 70.9651 60.494 71.0369 60.6427C71.1088 60.7915 71.2142 60.9215 71.3449 61.0224C71.4756 61.1234 71.6279 61.1926 71.7899 61.2245C71.9518 61.2564 72.1189 61.2501 72.2781 61.2063V66.139C72.1189 66.0951 71.9518 66.0889 71.7899 66.1208C71.6279 66.1527 71.4756 66.2219 71.3449 66.3228C71.2142 66.4238 71.1088 66.5538 71.0369 66.7026C70.9651 66.8513 70.9287 67.0148 70.9307 67.18V80.67C70.9287 80.8352 70.9651 80.9987 71.0369 81.1475C71.1088 81.2962 71.2142 81.4262 71.3449 81.5272C71.4756 81.6282 71.6279 81.6973 71.7899 81.7292C71.9518 81.7611 72.1189 81.7549 72.2781 81.711V224.167C72.285 230.257 74.7041 236.095 79.0049 240.401C83.3056 244.707 89.1366 247.129 95.2188 247.136H172.753C178.835 247.129 184.666 244.707 188.967 240.401C193.268 236.095 195.687 230.257 195.694 224.167V22.969C195.687 16.8794 193.268 11.0411 188.967 6.73508C184.666 2.42905 178.835 0.0068905 172.753 0ZM190.843 224.167C190.838 228.969 188.93 233.573 185.539 236.969C182.147 240.364 177.549 242.274 172.753 242.28H95.2188C90.4226 242.274 85.8244 240.364 82.433 236.969C79.0416 233.573 77.1339 228.969 77.1285 224.167V22.969C77.1339 18.1669 79.0416 13.5631 82.433 10.1675C85.8244 6.77187 90.4226 4.86183 95.2188 4.85639H172.753C177.549 4.86183 182.147 6.77187 185.539 10.1675C188.93 13.5631 190.838 18.1669 190.843 22.969V224.167Z" fill="#121317"/>
<path d="M172.753 244.978H95.219C89.7084 244.971 84.4253 242.777 80.5288 238.875C76.6322 234.974 74.4403 229.684 74.4341 224.167V22.969C74.4403 17.4516 76.6322 12.162 80.5288 8.2606C84.4253 4.3592 89.7084 2.16465 95.219 2.15839H172.753C178.264 2.16465 183.547 4.3592 187.444 8.26059C191.34 12.162 193.532 17.4516 193.538 22.969V224.167C193.532 229.684 191.34 234.974 187.444 238.875C183.547 242.777 178.264 244.971 172.753 244.978Z" fill="#E6E6E6"/>
<path d="M174.669 241.74H93.3028C89.5861 241.736 86.0229 240.256 83.3948 237.624C80.7667 234.993 79.2884 231.425 79.2842 227.704V19.4319C79.2884 15.7106 80.7667 12.143 83.3948 9.51165C86.0229 6.88033 89.5861 5.4002 93.3027 5.39598H103.914C104.528 5.39668 105.117 5.64133 105.551 6.07624C105.986 6.51116 106.23 7.10083 106.231 7.71588C106.233 9.53286 106.955 11.2748 108.238 12.5596C109.521 13.8444 111.261 14.5671 113.076 14.5691H153.818C155.633 14.5671 157.373 13.8444 158.656 12.5596C159.939 11.2748 160.661 9.53285 160.663 7.71587C160.664 7.10081 160.908 6.51115 161.342 6.07624C161.777 5.64132 162.366 5.39667 162.98 5.39597H174.669C178.386 5.40018 181.949 6.88031 184.577 9.51163C187.205 12.143 188.683 15.7106 188.688 19.4318V227.704C188.683 231.425 187.205 234.993 184.577 237.624C181.949 240.256 178.386 241.736 174.669 241.74Z" fill="white"/>
<path d="M137.489 10.1175H127.788C127.502 10.1175 127.228 10.0038 127.026 9.80138C126.824 9.59899 126.71 9.32449 126.71 9.03827C126.71 8.75205 126.824 8.47755 127.026 8.27516C127.228 8.07278 127.502 7.95908 127.788 7.95908H137.489C137.775 7.95908 138.049 8.07278 138.251 8.27516C138.453 8.47755 138.567 8.75205 138.567 9.03827C138.567 9.32449 138.453 9.59899 138.251 9.80138C138.049 10.0038 137.775 10.1175 137.489 10.1175Z" fill="white"/>
<path d="M144.226 9.84766C144.524 9.84766 144.765 9.60607 144.765 9.30806C144.765 9.01005 144.524 8.76846 144.226 8.76846C143.928 8.76846 143.687 9.01005 143.687 9.30806C143.687 9.60607 143.928 9.84766 144.226 9.84766Z" fill="white"/>
<path d="M191.309 47.5504H76.5562V48.7802H191.309V47.5504Z" fill="#E6E6E6"/>
<path d="M191.309 72.1454H76.5562V73.3752H191.309V72.1454Z" fill="#E6E6E6"/>
<path d="M191.309 122.975H76.5562V124.205H191.309V122.975Z" fill="#E6E6E6"/>
<path d="M191.309 173.805H76.5562V175.035H191.309V173.805Z" fill="#E6E6E6"/>
<path d="M191.309 213.567H76.5562V214.797H191.309V213.567Z" fill="#E6E6E6"/>
<path d="M159.892 48.1653H158.664V123.59H159.892V48.1653Z" fill="#E6E6E6"/>
<path d="M102.446 123.568H101.217V214.182H102.446V123.568Z" fill="#E6E6E6"/>
<path d="M188.688 148.424H101.832V149.654H188.688V148.424Z" fill="#E6E6E6"/>
<path d="M160.025 214.182H158.796V241.74H160.025V214.182Z" fill="#E6E6E6"/>
<path d="M159.073 98.0639H79.0796V99.2937H159.073V98.0639Z" fill="#E6E6E6"/>
<path d="M95.7854 4.61898L94.6523 5.09375L112.754 48.4027L113.887 47.9279L95.7854 4.61898Z" fill="#E6E6E6"/>
<path d="M151.536 14.5691H150.308V48.1653H151.536V14.5691Z" fill="#E6E6E6"/>
<path d="M183.208 66.8165C183.208 77.8352 166.193 103.511 161.22 110.779C161.07 110.999 160.869 111.178 160.634 111.302C160.399 111.427 160.137 111.492 159.871 111.492C159.605 111.492 159.343 111.427 159.108 111.302C158.873 111.178 158.672 110.999 158.522 110.779C153.55 103.511 136.535 77.8352 136.535 66.8165C136.535 60.6197 138.993 54.6766 143.37 50.2948C147.746 45.9129 153.682 43.4512 159.871 43.4512C166.06 43.4512 171.996 45.9129 176.372 50.2948C180.749 54.6766 183.208 60.6197 183.208 66.8165Z" fill="#FFCC00"/>
<path d="M159.871 77.0645C166.429 77.0645 171.744 71.7422 171.744 65.1769C171.744 58.6115 166.429 53.2892 159.871 53.2892C153.314 53.2892 147.999 58.6115 147.999 65.1769C147.999 71.7422 153.314 77.0645 159.871 77.0645Z" fill="white"/>
<path d="M159.093 123.944L114.129 213.893L115.228 214.443L160.192 124.494L159.093 123.944Z" fill="#E6E6E6"/>
<path d="M223.849 143.729C224.38 144.015 224.966 144.18 225.567 144.214C226.168 144.248 226.769 144.15 227.327 143.926C227.886 143.702 228.389 143.359 228.801 142.919C229.213 142.48 229.524 141.955 229.711 141.382L244.339 141.129L240.045 134.848L226.812 136.051C225.83 135.8 224.79 135.918 223.89 136.382C222.989 136.847 222.29 137.627 221.925 138.573C221.559 139.519 221.554 140.567 221.908 141.517C222.263 142.468 222.954 143.255 223.849 143.729H223.849Z" fill="#FFB8B8"/>
<path d="M232.631 143.547C232.404 143.547 232.18 143.501 231.971 143.411C231.763 143.322 231.574 143.192 231.418 143.028C231.261 142.864 231.139 142.67 231.059 142.457C230.979 142.245 230.943 142.018 230.953 141.792L231.249 135.076C231.265 134.676 231.424 134.295 231.696 134.002C231.969 133.709 232.337 133.524 232.734 133.48L249.681 131.534L249.113 142.726L232.714 143.544C232.686 143.546 232.658 143.547 232.631 143.547Z" fill="#FFCC00"/>
<path d="M253.269 235.602L248.498 237.162L240.217 219.478L247.259 217.176L253.269 235.602Z" fill="#FFB8B8"/>
<path d="M255.997 239.835L240.613 244.866L240.549 244.671C240.292 243.883 240.193 243.053 240.256 242.227C240.32 241.402 240.546 240.596 240.92 239.858C241.294 239.119 241.81 238.462 242.439 237.923C243.067 237.384 243.795 236.974 244.581 236.717L244.582 236.717L253.978 233.644L255.997 239.835Z" fill="#2F2E41"/>
<path d="M267.323 242.997L262.304 242.997L259.916 223.613L267.324 223.613L267.323 242.997Z" fill="#FFB8B8"/>
<path d="M268.603 247.869L252.419 247.868V247.663C252.419 246.835 252.582 246.015 252.898 245.25C253.215 244.484 253.679 243.789 254.264 243.203C254.849 242.618 255.543 242.153 256.308 241.836C257.072 241.519 257.891 241.356 258.718 241.356H258.719L268.604 241.357L268.603 247.869Z" fill="#2F2E41"/>
<path d="M259.699 238.279C259.289 238.279 258.893 238.128 258.586 237.855C258.279 237.582 258.083 237.207 258.034 236.799L251.562 182.63L242.09 197.855L253.204 226.294C253.355 226.687 253.355 227.123 253.202 227.515C253.049 227.908 252.756 228.229 252.379 228.417L242.95 233.036C242.735 233.142 242.5 233.2 242.26 233.207C242.021 233.213 241.783 233.169 241.562 233.076C241.341 232.983 241.143 232.844 240.98 232.667C240.817 232.491 240.694 232.282 240.619 232.055L230.17 200.447C229.383 198.068 229.28 195.515 229.873 193.081L236.63 165.321L236.709 165.277L251.938 156.925L252.026 156.957L269.961 163.511L268.084 199.099L269.448 236.036C269.466 236.475 269.312 236.904 269.017 237.229C268.723 237.555 268.312 237.751 267.874 237.776L259.805 238.276C259.769 238.278 259.734 238.279 259.699 238.279Z" fill="#2F2E41"/>
<path d="M249.82 175.869C247.14 175.869 244.883 175.105 243.47 173.162L243.425 173.1L244.339 163.497L236.21 168.015C236.041 168.109 235.848 168.148 235.656 168.129C235.464 168.109 235.283 168.031 235.137 167.904C234.992 167.778 234.888 167.61 234.84 167.423C234.793 167.236 234.803 167.039 234.871 166.859L245.009 139.903L251.703 117.945C252.035 116.187 252.892 114.572 254.161 113.313C255.43 112.055 257.051 111.211 258.81 110.896C264.773 109.799 268.324 111.814 272.425 116.284C273.417 117.372 274.147 118.672 274.561 120.085C274.974 121.499 275.06 122.988 274.81 124.44L270.931 146.641L272.071 166.547C272.158 166.89 272.134 167.252 272.004 167.581C271.873 167.91 271.642 168.189 271.343 168.379C268.172 170.4 258.45 175.868 249.82 175.869Z" fill="#FFCC00"/>
<path d="M263.386 107.571C268.94 107.571 273.442 103.063 273.442 97.5029C273.442 91.9425 268.94 87.4349 263.386 87.4349C257.833 87.4349 253.331 91.9425 253.331 97.5029C253.331 103.063 257.833 107.571 263.386 107.571Z" fill="#FFB8B8"/>
<path d="M266.005 169.27C266.552 169.019 267.038 168.651 267.428 168.192C267.817 167.732 268.101 167.193 268.26 166.612C268.419 166.031 268.449 165.422 268.347 164.828C268.246 164.234 268.015 163.669 267.672 163.174L276.296 151.341L268.702 150.98L261.677 162.272C260.884 162.905 260.351 163.806 260.178 164.805C260.004 165.805 260.203 166.834 260.737 167.696C261.27 168.559 262.101 169.195 263.072 169.486C264.043 169.776 265.087 169.699 266.005 169.27Z" fill="#FFB8B8"/>
<path d="M270.676 162.593C270.255 162.653 269.827 162.551 269.478 162.308L263.769 158.322C263.426 158.084 263.184 157.726 263.091 157.319C262.998 156.911 263.06 156.484 263.266 156.12L273.43 138.013L263.207 125.693C262.671 125.046 262.274 124.294 262.043 123.485C261.813 122.677 261.753 121.829 261.867 120.995C261.981 120.162 262.268 119.362 262.708 118.645C263.148 117.929 263.733 117.312 264.424 116.834C265.115 116.356 265.898 116.028 266.723 115.869C267.548 115.711 268.397 115.726 269.216 115.914C270.035 116.102 270.806 116.459 271.479 116.962C272.153 117.464 272.715 118.102 273.129 118.833L284.416 138.78C284.496 138.922 284.538 139.083 284.538 139.246C284.538 139.409 284.496 139.569 284.416 139.711L271.898 161.76C271.782 161.963 271.626 162.139 271.438 162.279C271.251 162.418 271.036 162.517 270.809 162.568C270.765 162.579 270.72 162.587 270.676 162.593Z" fill="#FFCC00"/>
<path d="M259.367 96.2176C258.372 95.4738 256.995 95.5899 255.815 95.2C255.113 94.9679 254.484 94.555 253.992 94.0028C253.499 93.4506 253.161 92.7785 253.009 92.0538C252.858 91.3291 252.9 90.5774 253.131 89.874C253.361 89.1706 253.772 88.5403 254.323 88.0463C255.597 86.9036 257.409 86.6443 259.106 86.4352C261.431 86.1488 263.779 85.862 266.111 86.0897C268.443 86.3174 270.79 87.106 272.494 88.7155C274.373 90.49 275.299 93.1317 275.305 95.718C275.24 98.3164 274.527 100.857 273.232 103.11C272.832 103.966 272.229 104.711 271.475 105.28C270.691 105.799 269.586 105.934 268.83 105.375C268.177 104.891 267.938 104.043 267.643 103.285C267.348 102.528 266.845 101.721 266.041 101.604C265.006 101.453 264.216 102.507 263.228 102.852C261.847 103.334 260.312 102.267 259.749 100.915C259.185 99.5636 259.334 98.034 259.492 96.5777" fill="#2F2E41"/>
<path d="M348 247.59C348 247.699 347.956 247.803 347.88 247.88C347.803 247.956 347.699 248 347.591 248H0.409412C0.300829 248 0.196693 247.957 0.119914 247.88C0.043134 247.803 0 247.699 0 247.59C0 247.481 0.043134 247.377 0.119914 247.3C0.196693 247.223 0.300829 247.18 0.409412 247.18H347.591C347.699 247.18 347.803 247.224 347.88 247.301C347.956 247.377 348 247.481 348 247.59Z" fill="#CCCCCC"/>
<path d="M159.871 128.714C162.811 128.714 165.194 126.328 165.194 123.385C165.194 120.442 162.811 118.056 159.871 118.056C156.932 118.056 154.549 120.442 154.549 123.385C154.549 126.328 156.932 128.714 159.871 128.714Z" fill="#FFCC00"/>
<path d="M234.802 65.1199C232.579 68.086 222.819 71.5566 220.014 72.5075C219.93 72.5363 219.839 72.544 219.751 72.5299C219.663 72.5158 219.579 72.4803 219.508 72.4265C219.436 72.3728 219.379 72.3024 219.34 72.2214C219.302 72.1404 219.284 72.0513 219.288 71.9618C219.416 68.9998 220.015 58.6473 222.238 55.6812C223.488 54.0131 225.349 52.9105 227.411 52.6161C229.473 52.3216 231.567 52.8593 233.233 54.1109C234.9 55.3626 236.001 57.2256 236.295 59.2902C236.589 61.3548 236.052 63.4518 234.802 65.1199Z" fill="#F2F2F2"/>
<path d="M228.851 63.9598C231.057 63.9598 232.846 62.1687 232.846 59.9592C232.846 57.7497 231.057 55.9586 228.851 55.9586C226.644 55.9586 224.855 57.7497 224.855 59.9592C224.855 62.1687 226.644 63.9598 228.851 63.9598Z" fill="white"/>
<path d="M217.108 77.4215C218.097 77.4215 218.899 76.6186 218.899 75.6281C218.899 74.6376 218.097 73.8347 217.108 73.8347C216.119 73.8347 215.317 74.6376 215.317 75.6281C215.317 76.6186 216.119 77.4215 217.108 77.4215Z" fill="#F2F2F2"/>
<path d="M39.9903 146.48C43.2612 151.484 43.1566 168.206 43.0562 172.986C43.0533 173.13 43.0153 173.272 42.9454 173.398C42.8755 173.524 42.7759 173.632 42.6552 173.711C42.5345 173.79 42.3963 173.839 42.2527 173.852C42.1091 173.866 41.9643 173.844 41.831 173.789C37.4155 171.968 22.0676 165.373 18.7967 160.369C17.8846 158.976 17.2556 157.416 16.9457 155.779C16.6358 154.143 16.6511 152.461 16.9907 150.83C17.3302 149.199 17.9874 147.651 18.9247 146.275C19.8619 144.898 21.0609 143.72 22.4531 142.808C23.8452 141.895 25.4033 141.267 27.0383 140.958C28.6732 140.648 30.353 140.665 31.9816 141.006C33.6103 141.347 35.1558 142.006 36.53 142.945C37.9041 143.884 39.08 145.086 39.9903 146.48Z" fill="#F2F2F2"/>
<path d="M28.9064 159.132C32.4651 159.132 35.35 156.243 35.35 152.68C35.35 149.117 32.4651 146.229 28.9064 146.229C25.3478 146.229 22.4629 149.117 22.4629 152.68C22.4629 156.243 25.3478 159.132 28.9064 159.132Z" fill="white"/>
<path d="M46.1854 182.004C47.7806 182.004 49.0739 180.709 49.0739 179.112C49.0739 177.514 47.7806 176.22 46.1854 176.22C44.5901 176.22 43.2969 177.514 43.2969 179.112C43.2969 180.709 44.5901 182.004 46.1854 182.004Z" fill="#F2F2F2"/>
</svg>
