<svg width="348" height="248" viewBox="0 0 348 248" fill="none" xmlns="http://www.w3.org/2000/svg">
<path d="M283.679 164.165C284.068 163.653 284.342 163.06 284.481 162.43C284.62 161.799 284.621 161.145 284.483 160.514C284.346 159.882 284.073 159.29 283.685 158.777C283.297 158.264 282.802 157.843 282.236 157.545L283.098 147.48L277.187 145.457L276.166 159.688C275.734 160.685 275.678 161.807 276.009 162.842C276.339 163.877 277.033 164.754 277.959 165.305C278.885 165.857 279.978 166.046 281.032 165.836C282.086 165.626 283.027 165.031 283.678 164.165L283.679 164.165Z" fill="#77442B"/>
<path d="M313.173 242.419H307.854L305.323 221.626H313.177L313.173 242.419Z" fill="#77442B"/>
<path d="M304.053 240.878H314.316V247.423H297.591C297.591 245.687 298.272 244.022 299.484 242.795C300.696 241.567 302.339 240.878 304.053 240.878Z" fill="#3F3F42"/>
<path d="M301.096 228.622L295.93 229.908L288.572 210.331L296.199 208.432L301.096 228.622Z" fill="#77442B"/>
<path d="M291.948 229.145L301.913 226.661L303.457 233.016L287.218 237.065C286.808 235.379 287.076 233.598 287.963 232.113C288.85 230.628 290.284 229.56 291.948 229.145Z" fill="#3F3F42"/>
<path d="M306.947 235.789C306.461 235.79 305.992 235.609 305.631 235.279C305.27 234.95 305.042 234.497 304.992 234.007L298.87 176.227L293.542 193.896L301.089 221.493C301.219 221.966 301.171 222.471 300.956 222.911C300.741 223.351 300.373 223.695 299.923 223.877L293.923 226.308C293.676 226.408 293.411 226.456 293.145 226.45C292.879 226.444 292.617 226.383 292.375 226.271C292.133 226.159 291.916 225.999 291.737 225.8C291.557 225.601 291.42 225.367 291.332 225.112L282.084 198.234C281.071 195.299 280.623 192.195 280.764 189.09L282.055 160.083L316.055 161.541L315.524 233.308C315.518 233.807 315.328 234.287 314.991 234.652C314.654 235.017 314.195 235.241 313.703 235.281L307.1 235.785C307.049 235.788 306.998 235.789 306.947 235.789Z" fill="#121317"/>
<path d="M301.316 95.8874C307.63 95.8874 312.749 90.7028 312.749 84.3073C312.749 77.9118 307.63 72.7272 301.316 72.7272C295.002 72.7272 289.884 77.9118 289.884 84.3073C289.884 90.7028 295.002 95.8874 301.316 95.8874Z" fill="#77442B"/>
<path d="M309.724 163.428C306.713 163.428 302.975 163.178 299.103 162.921C293.815 162.568 288.348 162.203 284.266 162.443C283.715 162.498 283.159 162.41 282.651 162.186C282.143 161.962 281.701 161.61 281.365 161.163C277.158 155.706 283.646 134.426 283.925 133.524L289.206 109.729L289.433 109.781L289.206 109.729C290.369 104.495 294.08 100.635 298.894 99.6541C303.4 98.7375 307.758 100.565 310.553 104.546C310.701 104.757 310.85 104.974 310.998 105.196C320.099 118.849 314.951 152.769 314.606 154.956C315.087 155.539 317.686 158.837 316.972 161.128C316.681 162.06 315.892 162.695 314.625 163.014C313.011 163.338 311.367 163.476 309.723 163.426L309.724 163.428Z" fill="#FFCC00"/>
<path d="M284.45 163.438C283.415 163.438 282.018 163.051 280.134 162.259C279.325 161.918 276.862 160.88 279.852 134.408C281.321 121.405 283.426 108.492 283.447 108.363L283.467 108.238L283.58 108.186C283.634 108.162 289.009 105.666 289.943 102.46C289.974 102.349 290.011 102.241 290.052 102.137C290.309 101.424 290.828 100.839 291.501 100.505C292.173 100.17 292.947 100.112 293.662 100.342C294.416 100.524 295.073 100.991 295.501 101.646C295.928 102.302 296.093 103.098 295.962 103.872C295.637 105.963 295.011 107.995 294.104 109.903C291.575 115.188 289.862 129.2 289.845 129.341C289.748 130.538 287.453 158.89 287.011 161.041C286.857 161.793 286.573 162.712 285.739 163.158C285.339 163.358 284.897 163.455 284.451 163.441L284.45 163.438Z" fill="#3F3F42"/>
<path d="M296.94 162.352C296.731 162.352 296.528 162.281 296.363 162.151C292.999 159.563 298.443 128.181 301.669 117.353C302.316 115.184 302.891 113.328 303.38 111.834C304.272 109.153 304.894 106.388 305.237 103.58C305.415 102.059 305.801 101.191 306.418 100.924C306.847 100.739 307.349 100.865 307.917 101.298C310.899 101.149 313.797 102.382 316.482 103.741L318.898 104.962L321.61 153.595C321.534 156.699 315.493 158.89 312.859 159.03C308.629 159.255 301.032 159.952 297.685 162.099C297.465 162.253 297.207 162.341 296.94 162.351L296.94 162.352Z" fill="#3F3F42"/>
<path d="M281.832 153.227C281.792 153.227 281.752 153.227 281.712 153.223L276.234 152.882C275.961 152.865 275.695 152.79 275.452 152.664C275.209 152.537 274.995 152.36 274.823 152.145C274.652 151.93 274.526 151.681 274.454 151.413C274.383 151.146 274.367 150.867 274.408 150.593L276.887 133.96L281.552 110.622C281.667 110.047 281.9 109.503 282.236 109.025C282.572 108.547 283.003 108.146 283.502 107.848C284 107.55 284.555 107.361 285.131 107.294C285.706 107.227 286.289 107.283 286.841 107.458C287.786 107.764 288.591 108.401 289.113 109.255C289.634 110.109 289.837 111.124 289.684 112.116L285.977 135.502L283.783 151.507C283.715 151.983 283.481 152.419 283.123 152.734C282.765 153.05 282.306 153.225 281.832 153.227H281.832Z" fill="#3F3F42"/>
<path d="M300.545 135.02C300.879 134.47 301.328 134 301.861 133.644C302.393 133.289 302.997 133.055 303.628 132.961C304.259 132.867 304.903 132.914 305.515 133.1C306.126 133.285 306.69 133.604 307.166 134.034L316.148 129.639L320.115 134.516L307.346 140.542C306.58 141.304 305.564 141.756 304.491 141.811C303.418 141.867 302.363 141.521 301.524 140.841C300.686 140.16 300.123 139.192 299.943 138.119C299.762 137.046 299.976 135.944 300.545 135.02Z" fill="#77442B"/>
<path d="M313.021 139.739C312.579 139.739 312.15 139.589 311.802 139.312C311.455 139.034 311.21 138.647 311.106 138.211L309.803 132.719C309.703 132.306 309.737 131.871 309.9 131.479C310.063 131.087 310.345 130.758 310.706 130.541L318.573 125.771L314.551 110.856C314.203 109.579 314.362 108.215 314.995 107.055C315.628 105.896 316.684 105.033 317.937 104.652C319.19 104.271 320.54 104.402 321.699 105.017C322.857 105.632 323.732 106.682 324.136 107.942L328.577 121.674C329.122 123.348 329.126 125.155 328.589 126.831C328.051 128.508 327 129.967 325.588 130.997L314.174 139.361C313.839 139.607 313.435 139.739 313.021 139.739Z" fill="#3F3F42"/>
<path d="M228.025 0H7.76416C5.70573 0.0024955 3.73232 0.831861 2.27679 2.30617C0.821258 3.78048 0.00246371 5.77935 0 7.86433V31.8722C0.00246371 33.9572 0.821258 35.9561 2.27679 37.4304C3.73232 38.9047 5.70573 39.7341 7.76416 39.7366H228.025C230.084 39.7341 232.057 38.9047 233.513 37.4304C234.968 35.9561 235.787 33.9572 235.789 31.8722V7.86433C235.787 5.77935 234.968 3.78048 233.513 2.30617C232.057 0.831861 230.084 0.0024955 228.025 0ZM234.972 31.8722C234.969 33.7376 234.236 35.5257 232.934 36.8447C231.632 38.1637 229.867 38.9059 228.025 38.9086H7.76416C5.92259 38.9059 4.15722 38.1637 2.85503 36.8447C1.55284 35.5257 0.820085 33.7376 0.817376 31.8722V7.86433C0.820085 5.999 1.55284 4.21086 2.85503 2.89187C4.15722 1.57288 5.92259 0.830666 7.76416 0.827922H228.025C229.867 0.830666 231.632 1.57288 232.934 2.89187C234.236 4.21086 234.969 5.999 234.972 7.86433V31.8722Z" fill="#3F3D56"/>
<path d="M228.025 96.4433H7.76416C5.70573 96.4408 3.73232 95.6114 2.27679 94.1371C0.821258 92.6628 0.00246371 90.6639 0 88.5789V64.5715C0.00246371 62.4865 0.821258 60.4876 2.27679 59.0133C3.73232 57.539 5.70573 56.7096 7.76416 56.7072H228.025C230.084 56.7096 232.057 57.539 233.513 59.0133C234.968 60.4876 235.787 62.4865 235.789 64.5715V88.5789C235.787 90.6639 234.968 92.6628 233.513 94.1371C232.057 95.6114 230.084 96.4408 228.025 96.4433ZM7.76416 57.5351C5.9224 57.5372 4.15668 58.2792 2.85436 59.5983C1.55204 60.9175 0.819471 62.706 0.817376 64.5715V88.5789C0.819101 90.4447 1.5515 92.2336 2.85386 93.553C4.15622 94.8724 5.92216 95.6146 7.76416 95.6168H228.025C229.867 95.6148 231.633 94.8728 232.935 93.5537C234.238 92.2345 234.97 90.446 234.972 88.5804V64.5715C234.97 62.706 234.238 60.9175 232.935 59.5983C231.633 58.2792 229.867 57.5372 228.026 57.5351H7.76416Z" fill="#CCCCCC"/>
<path d="M228.025 153.15H7.76416C5.70573 153.148 3.73232 152.319 2.27679 150.844C0.821258 149.37 0.00246371 147.371 0 145.286V121.279C0.00246371 119.194 0.821258 117.195 2.27679 115.72C3.73232 114.246 5.70573 113.417 7.76416 113.414H228.025C230.084 113.417 232.057 114.246 233.513 115.72C234.968 117.195 235.787 119.194 235.789 121.279V145.286C235.787 147.371 234.968 149.37 233.513 150.844C232.057 152.319 230.084 153.148 228.025 153.15ZM7.76416 114.24C5.9224 114.242 4.15668 114.984 2.85436 116.304C1.55204 117.623 0.819471 119.411 0.817376 121.277V145.284C0.819348 147.15 1.55186 148.938 2.85419 150.258C4.15653 151.577 5.92232 152.319 7.76416 152.321H228.025C229.867 152.319 231.633 151.577 232.935 150.258C234.238 148.939 234.97 147.15 234.972 145.285V121.279C234.971 119.413 234.238 117.624 232.936 116.304C231.633 114.985 229.867 114.242 228.025 114.24H7.76416Z" fill="#CCCCCC"/>
<path d="M37.5264 33.5564C34.8537 33.5564 32.2409 32.7536 30.0186 31.2495C27.7963 29.7454 26.0642 27.6077 25.0414 25.1065C24.0186 22.6053 23.7509 19.8531 24.2724 17.1979C24.7938 14.5426 26.0809 12.1036 27.9708 10.1893C29.8607 8.27502 32.2686 6.97135 34.89 6.4432C37.5114 5.91504 40.2286 6.18611 42.6979 7.22212C45.1672 8.25814 47.2778 10.0126 48.7627 12.2636C50.2476 14.5146 51.0402 17.161 51.0402 19.8683C51.0402 23.4986 49.6164 26.9802 47.0821 29.5472C44.5478 32.1142 41.1105 33.5564 37.5264 33.5564Z" fill="#FFCC00"/>
<path d="M208.073 31.0439H63.8215C62.9545 31.0439 62.1229 30.695 61.5098 30.074C60.8967 29.453 60.5522 28.6107 60.5522 27.7324C60.5522 26.8542 60.8967 26.0119 61.5098 25.3909C62.1229 24.7698 62.9545 24.421 63.8215 24.421H208.073C208.94 24.421 209.772 24.7698 210.385 25.3909C210.998 26.0119 211.342 26.8542 211.342 27.7324C211.342 28.6107 210.998 29.453 210.385 30.074C209.772 30.695 208.94 31.0439 208.073 31.0439Z" fill="#CCCCCC"/>
<path d="M161.076 16.9706H63.8181C62.951 16.9706 62.1195 16.6217 61.5064 16.0007C60.8933 15.3796 60.5488 14.5374 60.5488 13.6591C60.5488 12.7809 60.8933 11.9386 61.5064 11.3176C62.1195 10.6965 62.951 10.3477 63.8181 10.3477H161.076C161.943 10.3477 162.774 10.6965 163.388 11.3176C164.001 11.9386 164.345 12.7809 164.345 13.6591C164.345 14.5374 164.001 15.3796 163.388 16.0007C162.774 16.6217 161.943 16.9706 161.076 16.9706Z" fill="#CCCCCC"/>
<path d="M37.5264 90.263C34.8537 90.263 32.2409 89.4602 30.0186 87.9562C27.7963 86.4521 26.0642 84.3143 25.0414 81.8131C24.0186 79.312 23.7509 76.5598 24.2724 73.9045C24.7938 71.2493 26.0809 68.8103 27.9708 66.896C29.8607 64.9817 32.2686 63.678 34.89 63.1499C37.5114 62.6217 40.2286 62.8928 42.6979 63.9288C45.1672 64.9648 47.2778 66.7192 48.7627 68.9702C50.2476 71.2212 51.0402 73.8677 51.0402 76.5749C51.0402 80.2052 49.6164 83.6869 47.0821 86.2539C44.5478 88.8209 41.1105 90.263 37.5264 90.263Z" fill="#E6E6E6"/>
<path d="M208.073 87.751H63.8215C62.9545 87.751 62.1229 87.4021 61.5098 86.7811C60.8967 86.16 60.5522 85.3178 60.5522 84.4395C60.5522 83.5613 60.8967 82.719 61.5098 82.098C62.1229 81.4769 62.9545 81.1281 63.8215 81.1281H208.073C208.94 81.1281 209.772 81.4769 210.385 82.098C210.998 82.719 211.342 83.5613 211.342 84.4395C211.342 85.3178 210.998 86.16 210.385 86.7811C209.772 87.4021 208.94 87.751 208.073 87.751Z" fill="#E6E6E6"/>
<path d="M161.076 73.6777H63.8181C62.951 73.6777 62.1195 73.3288 61.5064 72.7078C60.8933 72.0868 60.5488 71.2445 60.5488 70.3663C60.5488 69.488 60.8933 68.6457 61.5064 68.0247C62.1195 67.4037 62.951 67.0548 63.8181 67.0548H161.076C161.943 67.0548 162.774 67.4037 163.388 68.0247C164.001 68.6457 164.345 69.488 164.345 70.3663C164.345 71.2445 164.001 72.0868 163.388 72.7078C162.774 73.3288 161.943 73.6777 161.076 73.6777Z" fill="#E6E6E6"/>
<path d="M37.5264 146.97C34.8537 146.97 32.2409 146.167 30.0186 144.663C27.7963 143.159 26.0642 141.021 25.0414 138.52C24.0186 136.019 23.7509 133.267 24.2724 130.612C24.7938 127.956 26.0809 125.517 27.9708 123.603C29.8607 121.689 32.2686 120.385 34.89 119.857C37.5114 119.329 40.2286 119.6 42.6979 120.636C45.1672 121.672 47.2778 123.426 48.7627 125.677C50.2476 127.928 51.0402 130.575 51.0402 133.282C51.0402 136.912 49.6164 140.394 47.0821 142.961C44.5478 145.528 41.1105 146.97 37.5264 146.97Z" fill="#E6E6E6"/>
<path d="M208.073 144.458H63.8215C62.9545 144.458 62.1229 144.109 61.5098 143.488C60.8967 142.867 60.5522 142.025 60.5522 141.147C60.5522 140.268 60.8967 139.426 61.5098 138.805C62.1229 138.184 62.9545 137.835 63.8215 137.835H208.073C208.94 137.835 209.772 138.184 210.385 138.805C210.998 139.426 211.342 140.268 211.342 141.147C211.342 142.025 210.998 142.867 210.385 143.488C209.772 144.109 208.94 144.458 208.073 144.458Z" fill="#E6E6E6"/>
<path d="M161.076 130.385H63.8181C62.951 130.385 62.1195 130.036 61.5064 129.415C60.8933 128.794 60.5488 127.952 60.5488 127.073C60.5488 126.195 60.8933 125.353 61.5064 124.732C62.1195 124.111 62.951 123.762 63.8181 123.762H161.076C161.943 123.762 162.774 124.111 163.388 124.732C164.001 125.353 164.345 126.195 164.345 127.073C164.345 127.952 164.001 128.794 163.388 129.415C162.774 130.036 161.943 130.385 161.076 130.385Z" fill="#E6E6E6"/>
<path d="M36.8364 24.683C36.5007 24.6838 36.174 24.5739 35.9054 24.37L35.8887 24.3572L32.3859 21.6434C32.2237 21.5174 32.0876 21.3603 31.9853 21.1811C31.883 21.0018 31.8166 20.8039 31.7898 20.5986C31.763 20.3933 31.7764 20.1847 31.8292 19.9847C31.882 19.7847 31.9732 19.5972 32.0976 19.4328C32.222 19.2685 32.3771 19.1306 32.554 19.027C32.731 18.9234 32.9264 18.8561 33.1291 18.829C33.3317 18.8019 33.5377 18.8154 33.7351 18.8689C33.9326 18.9224 34.1177 19.0148 34.28 19.1408L36.5487 20.9032L41.9096 13.8187C42.1607 13.4871 42.5315 13.27 42.9406 13.2153C43.3496 13.1606 43.7633 13.2726 44.0908 13.5268L44.0578 13.574L44.0918 13.5268C44.4188 13.7815 44.6327 14.1572 44.6867 14.5715C44.7406 14.9858 44.6301 15.4048 44.3794 15.7367L38.0736 24.0659C37.9275 24.2574 37.7398 24.4124 37.5251 24.5186C37.3104 24.6249 37.0744 24.6797 36.8355 24.6788L36.8364 24.683Z" fill="white"/>
<path d="M347.535 248H255.37C255.247 248 255.128 247.95 255.041 247.862C254.954 247.773 254.905 247.654 254.905 247.528C254.905 247.403 254.954 247.284 255.041 247.195C255.128 247.107 255.247 247.057 255.37 247.057H347.535C347.658 247.057 347.777 247.107 347.864 247.195C347.951 247.284 348 247.403 348 247.528C348 247.654 347.951 247.773 347.864 247.862C347.777 247.95 347.658 248 347.535 248Z" fill="#CCCCCC"/>
<path d="M305.519 87.394C305.519 87.394 304.128 79.6022 300.962 80.5331C297.797 81.4641 289.649 82.4166 289.634 78.747C289.619 75.0775 297.303 71.834 301.834 72.273C306.364 72.712 314.068 74.055 313.644 80.9372C313.304 85.2717 311.981 89.4683 309.779 93.2004L305.519 87.394Z" fill="#121317"/>
</svg>
