<svg width="347" height="248" viewBox="0 0 347 248" fill="none" xmlns="http://www.w3.org/2000/svg">
<g clip-path="url(#clip0_547_87)">
<path d="M84.0466 223.542L84.4324 213.553C88.4546 211.078 92.9408 209.77 97.5014 209.744C91.2246 215.653 92.009 227.043 87.7535 234.989C86.4097 237.456 84.6011 239.542 82.4617 241.095C80.3223 242.647 77.9069 243.625 75.3946 243.957L70.1419 247.66C69.4212 243.033 69.5801 238.282 70.6077 233.733C71.6353 229.184 73.5072 224.945 76.0944 221.309C77.5634 219.286 79.2478 217.484 81.1079 215.946C82.3659 219.765 84.0466 223.542 84.0466 223.542Z" fill="#F2F2F2"/>
<path d="M308.176 16.2754H63.6512C63.5486 16.2728 63.4509 16.224 63.3791 16.1395C63.3073 16.055 63.2671 15.9415 63.2671 15.8233C63.2671 15.7051 63.3073 15.5916 63.3791 15.5071C63.4509 15.4226 63.5486 15.3738 63.6512 15.3712H308.176C308.278 15.3738 308.376 15.4226 308.448 15.5071C308.52 15.5916 308.56 15.7051 308.56 15.8233C308.56 15.9415 308.52 16.055 308.448 16.1395C308.376 16.224 308.278 16.2728 308.176 16.2754Z" fill="#CACACA"/>
<path d="M72.0713 10C74.2804 10 76.0713 8.20914 76.0713 6C76.0713 3.79086 74.2804 2 72.0713 2C69.8622 2 68.0713 3.79086 68.0713 6C68.0713 8.20914 69.8622 10 72.0713 10Z" fill="#121317"/>
<path d="M86.6665 10C88.8756 10 90.6665 8.20914 90.6665 6C90.6665 3.79086 88.8756 2 86.6665 2C84.4574 2 82.6665 3.79086 82.6665 6C82.6665 8.20914 84.4574 10 86.6665 10Z" fill="#121317"/>
<path d="M101.262 10C103.471 10 105.262 8.20914 105.262 6C105.262 3.79086 103.471 2 101.262 2C99.0526 2 97.2617 3.79086 97.2617 6C97.2617 8.20914 99.0526 10 101.262 10Z" fill="#121317"/>
<path d="M299.43 1.2326H289.062C288.857 1.2373 288.661 1.3346 288.517 1.5036C288.373 1.6726 288.292 1.89982 288.292 2.13649C288.292 2.37315 288.373 2.60038 288.517 2.76938C288.661 2.93838 288.857 3.03567 289.062 3.04037H299.43C299.635 3.03567 299.831 2.93838 299.975 2.76938C300.119 2.60038 300.199 2.37315 300.199 2.13649C300.199 1.89982 300.119 1.6726 299.975 1.5036C299.831 1.3346 299.635 1.2373 299.43 1.2326Z" fill="#121317"/>
<path d="M299.43 4.62549H289.062C288.857 4.63019 288.661 4.72748 288.517 4.89648C288.373 5.06548 288.292 5.29271 288.292 5.52937C288.292 5.76603 288.373 5.99326 288.517 6.16226C288.661 6.33126 288.857 6.42855 289.062 6.43325H299.43C299.635 6.42855 299.831 6.33126 299.975 6.16226C300.119 5.99326 300.199 5.76603 300.199 5.52937C300.199 5.29271 300.119 5.06548 299.975 4.89648C299.831 4.72748 299.635 4.63019 299.43 4.62549Z" fill="#121317"/>
<path d="M299.43 8.01398H289.062C288.857 8.01867 288.661 8.11596 288.517 8.28496C288.373 8.45396 288.292 8.68119 288.292 8.91786C288.292 9.15452 288.373 9.38175 288.517 9.55075C288.661 9.71975 288.857 9.81704 289.062 9.82174H299.43C299.635 9.81704 299.831 9.71975 299.975 9.55075C300.119 9.38175 300.199 9.15452 300.199 8.91786C300.199 8.68119 300.119 8.45396 299.975 8.28496C299.831 8.11596 299.635 8.01867 299.43 8.01398Z" fill="#121317"/>
<path d="M253.956 51.7134H86.1212C85.2942 51.7134 84.5011 52.0914 83.9159 52.7643C83.3308 53.4372 83.0015 54.35 83.0005 55.3022V146.523C83.0014 147.476 83.3305 148.389 83.9155 149.063C84.5006 149.736 85.2938 150.115 86.1212 150.116H253.956C254.783 150.114 255.575 149.735 256.16 149.061C256.744 148.388 257.072 147.475 257.073 146.523V55.3022C257.072 54.3507 256.744 53.4384 256.159 52.7656C255.575 52.0928 254.783 51.7143 253.956 51.7134Z" fill="#BEC7C7"/>
<path d="M209.624 95.6608C208.797 95.6617 208.005 96.0402 207.421 96.713C206.836 97.3858 206.508 98.2981 206.507 99.2496V125.017C206.508 125.969 206.836 126.882 207.42 127.555C208.005 128.229 208.797 128.608 209.624 128.61H257.073V95.6608H209.624Z" fill="#FFCC00"/>
<path opacity="0.5" d="M336.856 128.608H209.626C208.799 128.607 208.006 128.229 207.421 127.555C206.836 126.882 206.507 125.969 206.506 125.017V99.2505C206.507 98.2982 206.836 97.3853 207.421 96.712C208.006 96.0387 208.799 95.66 209.626 95.6589H336.856C337.683 95.66 338.476 96.0387 339.061 96.712C339.646 97.3853 339.975 98.2982 339.976 99.2505V125.017C339.975 125.969 339.646 126.882 339.061 127.555C338.476 128.229 337.683 128.607 336.856 128.608Z" fill="#FFCC00"/>
<path d="M226.832 119.609C229.627 119.609 231.894 117 231.894 113.781C231.894 110.562 229.627 107.953 226.832 107.953C224.036 107.953 221.77 110.562 221.77 113.781C221.77 117 224.036 119.609 226.832 119.609Z" fill="white"/>
<path d="M332.914 112.087H241.453C241.053 112.087 240.669 111.905 240.387 111.579C240.104 111.254 239.945 110.812 239.945 110.352C239.945 109.892 240.104 109.45 240.387 109.125C240.669 108.799 241.053 108.616 241.453 108.616H332.914C333.314 108.616 333.698 108.799 333.98 109.125C334.263 109.45 334.422 109.892 334.422 110.352C334.422 110.812 334.263 111.254 333.98 111.579C333.698 111.905 333.314 112.087 332.914 112.087Z" fill="white"/>
<path d="M298.176 118.945H241.453C241.053 118.945 240.669 118.762 240.387 118.437C240.104 118.111 239.945 117.67 239.945 117.21C239.945 116.749 240.104 116.308 240.387 115.982C240.669 115.657 241.053 115.474 241.453 115.474H298.176C298.576 115.474 298.96 115.657 299.242 115.982C299.525 116.308 299.684 116.749 299.684 117.21C299.684 117.67 299.525 118.111 299.242 118.437C298.96 118.762 298.576 118.945 298.176 118.945Z" fill="white"/>
<path d="M58.5501 242.907L62.9307 242.907L65.0147 223.452H58.5493L58.5501 242.907Z" fill="#FFB6B6"/>
<path d="M57.4326 241.26L58.6656 241.26L63.4795 239.006L66.0596 241.26H66.0599C67.518 241.26 68.9163 241.927 69.9473 243.114C70.9783 244.301 71.5576 245.911 71.5577 247.59V247.795L57.4329 247.796L57.4326 241.26Z" fill="#3F3F42"/>
<path d="M18.9683 236.349L22.8891 238.599L32.2915 222.258L26.5052 218.937L18.9683 236.349Z" fill="#FFB6B6"/>
<path d="M18.6063 234.301L19.7098 234.935L24.8915 235.39L26.3274 238.732L26.3277 238.732C27.6326 239.481 28.6257 240.796 29.0885 242.389C29.5514 243.981 29.446 245.719 28.7957 247.222L28.716 247.406L16.0742 240.151L18.6063 234.301Z" fill="#3F3F42"/>
<path d="M60.4909 154.549L32.6379 155.386L33.1223 171.003C33.1223 171.003 32.6379 175.186 33.6067 176.301C34.5755 177.417 35.0599 177.417 34.5755 179.369C34.0911 181.321 32.8388 199.973 32.8388 199.973C32.8388 199.973 21.4072 223.246 21.8916 223.804C22.376 224.362 22.8604 223.804 22.376 225.199C21.8916 226.593 21.4072 226.035 21.8916 226.593C22.3206 227.126 22.7249 227.684 23.1026 228.266H30.9974C30.9974 228.266 31.4389 225.477 31.4389 225.199C31.4389 224.92 31.9233 223.246 31.9233 222.968C31.9233 222.689 45.7167 205.862 45.7167 205.862L48.6231 177.974L55.6469 205.304C55.6469 205.304 55.6469 229.287 56.1313 229.845C56.6157 230.403 56.6157 230.124 56.3735 231.239C56.1313 232.355 55.1625 232.076 55.8891 232.912C56.6157 233.749 56.8579 232.355 56.6157 233.749L56.3735 235.143L65.6787 235.263C65.6787 235.263 66.6475 232.912 66.1631 232.076C65.6787 231.239 65.7077 231.468 66.2987 230.098C66.8897 228.729 67.1319 228.45 66.8897 228.172C66.6475 227.893 66.6475 226.409 66.6475 226.409C66.6475 226.409 63.1551 171.56 63.1551 170.724C63.1369 170.293 63.2058 169.864 63.3563 169.469V168.333L62.4285 164.31L60.4909 154.549Z" fill="#121317"/>
<path d="M334.125 106.515C332.048 106.515 330.018 105.899 328.291 104.745C326.564 103.592 325.219 101.952 324.424 100.033C323.629 98.1145 323.421 96.0033 323.826 93.9665C324.231 91.9297 325.231 90.0588 326.7 88.5903C328.168 87.1219 330.039 86.1219 332.076 85.7167C334.113 85.3116 336.224 85.5195 338.143 86.3142C340.061 87.1089 341.701 88.4547 342.855 90.1815C344.009 91.9082 344.625 93.9383 344.625 96.015C344.625 98.7997 343.518 101.47 341.549 103.44C339.58 105.409 336.909 106.515 334.125 106.515Z" fill="#FFCC00"/>
<path d="M338.491 94.8557H335.328V91.2139C335.328 90.892 335.217 90.5832 335.019 90.3556C334.821 90.1279 334.553 90 334.273 90C333.994 90 333.726 90.1279 333.528 90.3556C333.33 90.5832 333.219 90.892 333.219 91.2139V94.8557H330.056C329.918 94.8554 329.78 94.8866 329.652 94.9475C329.524 95.0083 329.408 95.0977 329.31 95.2105C329.211 95.3232 329.134 95.4571 329.08 95.6046C329.027 95.752 329 95.91 329 96.0697C329 96.2293 329.027 96.3873 329.08 96.5347C329.134 96.6822 329.211 96.8161 329.31 96.9288C329.408 97.0416 329.524 97.131 329.652 97.1918C329.78 97.2527 329.918 97.2839 330.056 97.2836H333.219V100.925C333.219 101.247 333.33 101.556 333.528 101.784C333.726 102.011 333.994 102.139 334.273 102.139C334.553 102.139 334.821 102.011 335.019 101.784C335.217 101.556 335.328 101.247 335.328 100.925V97.2836H338.491C338.77 97.2836 339.038 97.1557 339.236 96.928C339.434 96.7004 339.545 96.3916 339.545 96.0697C339.545 95.7477 339.434 95.4389 339.236 95.2113C339.038 94.9836 338.77 94.8557 338.491 94.8557Z" fill="white"/>
<path d="M173.2 128.775H132.592C131.765 128.776 130.971 129.155 130.386 129.829C129.801 130.502 129.472 131.415 129.471 132.368V150.116H176.317V132.368C176.316 131.416 175.988 130.503 175.404 129.83C174.819 129.156 174.027 128.777 173.2 128.775Z" fill="#FFCC00"/>
<path opacity="0.5" d="M173.199 178.644H132.591C131.764 178.643 130.971 178.264 130.386 177.591C129.801 176.918 129.472 176.005 129.471 175.053V132.366C129.472 131.414 129.801 130.501 130.386 129.828C130.971 129.155 131.764 128.776 132.591 128.775H173.199C174.026 128.776 174.819 129.155 175.403 129.828C175.988 130.501 176.317 131.414 176.318 132.366V175.053C176.317 176.005 175.988 176.918 175.403 177.591C174.819 178.264 174.026 178.643 173.199 178.644Z" fill="#FFCC00"/>
<path d="M144.493 147.352C147.254 147.352 149.493 145.113 149.493 142.352C149.493 139.59 147.254 137.352 144.493 137.352C141.731 137.352 139.493 139.59 139.493 142.352C139.493 145.113 141.731 147.352 144.493 147.352Z" fill="white"/>
<path d="M164.788 157.866H141C140.601 157.866 140.217 157.684 139.935 157.358C139.652 157.033 139.493 156.591 139.493 156.131C139.493 155.671 139.652 155.229 139.935 154.904C140.217 154.578 140.601 154.395 141 154.395H164.788C165.188 154.395 165.572 154.578 165.854 154.904C166.137 155.229 166.296 155.671 166.296 156.131C166.296 156.591 166.137 157.033 165.854 157.358C165.572 157.684 165.188 157.866 164.788 157.866Z" fill="white"/>
<path d="M152.479 164.724H141C140.6 164.724 140.217 164.542 139.934 164.216C139.651 163.891 139.493 163.449 139.493 162.989C139.493 162.528 139.651 162.087 139.934 161.762C140.217 161.436 140.6 161.253 141 161.253H152.479C152.879 161.253 153.262 161.436 153.545 161.762C153.828 162.087 153.986 162.528 153.986 162.989C153.986 163.449 153.828 163.891 153.545 164.216C153.262 164.542 152.879 164.724 152.479 164.724Z" fill="white"/>
<path d="M131.556 187.56C129.479 187.56 127.449 186.944 125.723 185.79C123.996 184.637 122.65 182.997 121.855 181.078C121.061 179.16 120.853 177.048 121.258 175.012C121.663 172.975 122.663 171.104 124.132 169.635C125.6 168.167 127.471 167.167 129.508 166.762C131.544 166.357 133.656 166.565 135.574 167.359C137.493 168.154 139.133 169.5 140.287 171.227C141.44 172.953 142.056 174.983 142.056 177.06C142.056 179.845 140.95 182.515 138.981 184.485C137.012 186.454 134.341 187.56 131.556 187.56Z" fill="#FFCC00"/>
<path d="M135.961 175.652H132.798V172.01C132.798 171.688 132.687 171.38 132.489 171.152C132.291 170.924 132.023 170.797 131.744 170.797C131.464 170.797 131.196 170.924 130.998 171.152C130.8 171.38 130.689 171.688 130.689 172.01V175.652H127.527C127.388 175.652 127.251 175.683 127.122 175.744C126.994 175.805 126.878 175.894 126.78 176.007C126.682 176.12 126.604 176.254 126.551 176.401C126.498 176.549 126.47 176.707 126.47 176.866C126.47 177.026 126.498 177.184 126.551 177.331C126.604 177.479 126.682 177.613 126.78 177.725C126.878 177.838 126.994 177.927 127.122 177.988C127.251 178.049 127.388 178.08 127.527 178.08H130.689V181.722C130.689 182.044 130.8 182.353 130.998 182.58C131.196 182.808 131.464 182.936 131.744 182.936C132.023 182.936 132.291 182.808 132.489 182.58C132.687 182.353 132.798 182.044 132.798 181.722V178.08H135.961C136.24 178.08 136.509 177.952 136.706 177.725C136.904 177.497 137.015 177.188 137.015 176.866C137.015 176.544 136.904 176.235 136.706 176.008C136.509 175.78 136.24 175.652 135.961 175.652Z" fill="white"/>
<path d="M126.796 101.638H86.1882C85.3612 101.637 84.5683 101.259 83.9835 100.585C83.3987 99.9119 83.0698 98.999 83.0688 98.0468V55.3605C83.0698 54.4083 83.3988 53.4954 83.9835 52.8221C84.5683 52.1488 85.3612 51.7701 86.1882 51.769H126.796C127.623 51.7701 128.416 52.1488 129.001 52.8221C129.586 53.4954 129.915 54.4083 129.916 55.3605V98.0468C129.915 98.999 129.586 99.9119 129.001 100.585C128.416 101.259 127.623 101.637 126.796 101.638Z" fill="#FFCC00"/>
<path d="M98.1526 75.5642C100.948 75.5642 103.214 72.9549 103.214 69.736C103.214 66.5172 100.948 63.9078 98.1526 63.9078C95.357 63.9078 93.0908 66.5172 93.0908 69.736C93.0908 72.9549 95.357 75.5642 98.1526 75.5642Z" fill="#FFCC00"/>
<path d="M118.386 82.6417H94.5981C94.1984 82.6417 93.815 82.4588 93.5323 82.1334C93.2496 81.8079 93.0908 81.3665 93.0908 80.9062C93.0908 80.4459 93.2496 80.0045 93.5323 79.679C93.815 79.3535 94.1984 79.1707 94.5981 79.1707H118.386C118.786 79.1707 119.169 79.3535 119.452 79.679C119.735 80.0045 119.893 80.4459 119.893 80.9062C119.893 81.3665 119.735 81.8079 119.452 82.1334C119.169 82.4588 118.786 82.6417 118.386 82.6417Z" fill="#FFCC00"/>
<path d="M106.077 89.4996H94.5982C94.1984 89.4996 93.815 89.3168 93.5323 88.9913C93.2496 88.6658 93.0908 88.2244 93.0908 87.764C93.0908 87.3037 93.2496 86.8623 93.5323 86.5368C93.815 86.2113 94.1984 86.0284 94.5982 86.0284H106.077C106.477 86.0284 106.86 86.2113 107.143 86.5368C107.426 86.8623 107.584 87.3037 107.584 87.764C107.584 88.2244 107.426 88.6658 107.143 88.9913C106.86 89.3168 106.477 89.4996 106.077 89.4996Z" fill="#FFCC00"/>
<path opacity="0.5" d="M126.796 101.638H86.1882C85.3612 101.637 84.5683 101.259 83.9835 100.585C83.3987 99.9119 83.0698 98.999 83.0688 98.0468V55.3605C83.0698 54.4083 83.3988 53.4954 83.9835 52.8221C84.5683 52.1488 85.3612 51.7701 86.1882 51.769H126.796C127.623 51.7701 128.416 52.1488 129.001 52.8221C129.586 53.4954 129.915 54.4083 129.916 55.3605V98.0468C129.915 98.999 129.586 99.9119 129.001 100.585C128.416 101.259 127.623 101.637 126.796 101.638Z" fill="#FFCC00"/>
<path d="M98.0908 73.9078C100.852 73.9078 103.091 71.6693 103.091 68.9078C103.091 66.1464 100.852 63.9078 98.0908 63.9078C95.3294 63.9078 93.0908 66.1464 93.0908 68.9078C93.0908 71.6693 95.3294 73.9078 98.0908 73.9078Z" fill="white"/>
<path d="M118.386 82.6417H94.5981C94.1984 82.6417 93.815 82.4588 93.5323 82.1334C93.2496 81.8079 93.0908 81.3665 93.0908 80.9062C93.0908 80.4459 93.2496 80.0045 93.5323 79.679C93.815 79.3535 94.1984 79.1707 94.5981 79.1707H118.386C118.786 79.1707 119.169 79.3535 119.452 79.679C119.735 80.0045 119.893 80.4459 119.893 80.9062C119.893 81.3665 119.735 81.8079 119.452 82.1334C119.169 82.4588 118.786 82.6417 118.386 82.6417Z" fill="white"/>
<path d="M106.077 89.4996H94.5982C94.1984 89.4996 93.815 89.3168 93.5323 88.9913C93.2496 88.6658 93.0908 88.2244 93.0908 87.764C93.0908 87.3037 93.2496 86.8623 93.5323 86.5368C93.815 86.2113 94.1984 86.0284 94.5982 86.0284H106.077C106.477 86.0284 106.86 86.2113 107.143 86.5368C107.426 86.8623 107.584 87.3037 107.584 87.764C107.584 88.2244 107.426 88.6658 107.143 88.9913C106.86 89.3168 106.477 89.4996 106.077 89.4996Z" fill="white"/>
<path d="M86.9053 63.2783C91.3236 63.2783 94.9053 59.6966 94.9053 55.2783C94.9053 50.86 91.3236 47.2783 86.9053 47.2783C82.487 47.2783 78.9053 50.86 78.9053 55.2783C78.9053 59.6966 82.487 63.2783 86.9053 63.2783Z" fill="#BB2020"/>
<path d="M109.311 247.47C109.311 247.54 109.299 247.609 109.276 247.673C109.253 247.738 109.219 247.796 109.176 247.845C109.134 247.895 109.083 247.934 109.027 247.96C108.971 247.987 108.911 248 108.851 248H0.460183C0.338135 248 0.221085 247.944 0.134784 247.845C0.0484827 247.745 0 247.611 0 247.47C0 247.33 0.0484827 247.195 0.134784 247.095C0.221085 246.996 0.338135 246.94 0.460183 246.94H108.851C108.911 246.94 108.971 246.954 109.027 246.98C109.083 247.007 109.134 247.046 109.176 247.095C109.219 247.144 109.253 247.203 109.276 247.267C109.299 247.331 109.311 247.4 109.311 247.47Z" fill="#CCCCCC"/>
<path d="M85.2901 76.3963C85.624 77.4711 85.5776 78.6539 85.161 79.6897C84.7444 80.7254 83.991 81.5312 83.0632 81.9332C82.8579 82.0215 82.6463 82.0887 82.4307 82.1339L80.286 97.2548L75.2549 91.9061L78.0629 78.3671C77.959 77.2262 78.2491 76.0841 78.8707 75.1876C79.4923 74.2911 80.3953 73.7123 81.3846 73.5763C82.2169 73.4665 83.0568 73.6858 83.7666 74.1982C84.4763 74.7107 85.0135 75.4858 85.2901 76.3963L85.2901 76.3963Z" fill="#FFB6B6"/>
<path d="M48.1606 110.658C48.1606 110.658 52.0654 104.718 66.2349 104.881L74.2776 101.516L76.1157 82.116L82.5489 83.8796L81.6298 107.865L67.8444 117.036L49.7701 121.269L48.1606 110.658Z" fill="#484848"/>
<path d="M46.0862 98.2828C50.7309 98.2828 54.4961 93.9474 54.4961 88.5995C54.4961 83.2515 50.7309 78.9161 46.0862 78.9161C41.4415 78.9161 37.6763 83.2515 37.6763 88.5995C37.6763 93.9474 41.4415 98.2828 46.0862 98.2828Z" fill="#FFB6B6"/>
<path d="M31.852 162.021C31.837 162.021 31.8222 162.019 31.8078 162.014C31.6526 161.964 31.5299 161.925 32.0902 156.346L32.695 151.936L32.1046 148.043L31.1115 146.899L32.7076 145.062L34.0469 140.681L31.7295 136.727L29.0706 120.557C28.6135 117.767 28.9687 114.881 30.0812 112.347C31.1936 109.812 33.0011 107.772 35.2234 106.541L38.3007 105.506L39.4204 103.141C39.7348 102.477 40.1978 101.922 40.7612 101.534C41.3247 101.145 41.9682 100.938 42.6249 100.932L48.2603 100.883C48.8288 100.878 49.3906 101.025 49.9017 101.312C50.4127 101.599 50.859 102.019 51.2057 102.537L53.1717 105.48L61.3245 108.669L59.9728 142.207C60.1875 142.414 60.3626 142.67 60.487 142.959C60.6114 143.247 60.6823 143.563 60.6954 143.885C60.7084 144.207 60.6633 144.529 60.5628 144.83C60.4623 145.13 60.3087 145.404 60.1117 145.633C60.0269 145.732 59.9595 145.812 59.918 145.865C59.7806 146.09 60.0384 147.768 60.3569 149.193L60.7653 151.376C60.6342 151.484 60.524 151.621 60.4416 151.781C60.3592 151.94 60.3064 152.117 60.2865 152.301C60.2666 152.485 60.28 152.672 60.326 152.85C60.3719 153.028 60.4494 153.193 60.5534 153.334L61.0742 154.042C61.1771 154.93 60.97 155.829 60.4982 156.542C60.0265 157.254 59.3286 157.722 58.5577 157.843C51.1068 159.01 31.8909 162.021 31.852 162.021Z" fill="#484848"/>
<path d="M43.9347 97.8087C43.8987 97.7176 43.8629 97.6262 43.8271 97.5345C43.8409 97.535 43.8546 97.5373 43.8683 97.5377L43.9347 97.8087Z" fill="#2F2E41"/>
<path d="M37.4422 79.3565C37.8415 78.9227 38.3605 78.6644 38.9085 78.6265C39.4523 78.6467 40.0038 79.2123 39.8911 79.8252C40.89 77.7888 42.4799 76.2225 44.3818 75.4014C46.2837 74.5802 48.3761 74.5567 50.2915 75.3348C51.6432 75.8839 52.9686 76.9823 53.2791 78.5934C53.3094 79.0164 53.4189 79.4268 53.6002 79.7963C53.7574 79.9939 53.9613 80.1342 54.1868 80.2C54.4123 80.2658 54.6496 80.2542 54.8695 80.1666L54.8828 80.1621C54.9581 80.1325 55.0393 80.1296 55.1161 80.1537C55.1928 80.1779 55.2614 80.228 55.3131 80.2975C55.3648 80.3671 55.3972 80.4529 55.4061 80.5439C55.415 80.6349 55.4 80.7269 55.363 80.8079L54.9805 81.6292C55.4626 81.7529 55.9636 81.7406 56.4406 81.5934C56.5199 81.5695 56.6036 81.5744 56.6804 81.6074C56.7571 81.6405 56.8231 81.7 56.8693 81.7779C56.9155 81.8559 56.9396 81.9483 56.9383 82.0426C56.9371 82.137 56.9105 82.2285 56.8622 82.3048C56.2267 83.306 55.3969 84.1226 54.439 84.6895C53.4811 85.2564 52.4214 85.5581 51.3444 85.5705C49.8164 85.5597 48.2726 84.9534 46.7855 85.358C46.2102 85.5145 45.6726 85.8173 45.2122 86.2443C44.7518 86.6712 44.3802 87.2114 44.1248 87.8253C43.8694 88.4391 43.7365 89.111 43.736 89.7917C43.7356 90.4724 43.8674 91.1445 44.122 91.7589C43.6651 91.1835 42.782 91.3197 42.3147 91.8838C42.0994 92.1858 41.9404 92.5355 41.8473 92.9111C41.7542 93.2868 41.7291 93.6804 41.7735 94.0677C41.8981 95.2539 42.2039 96.4053 42.6769 97.4689C40.8699 97.4049 39.1236 96.7038 37.6737 95.4605C36.2238 94.2171 35.1403 92.4914 34.5694 90.5163C33.9986 88.5412 33.968 86.412 34.4818 84.4163C34.9955 82.4205 36.0288 80.6544 37.4422 79.3565L37.4422 79.3565Z" fill="#2F2E41"/>
<path d="M35.1284 175.909C34.3244 175.241 33.7804 174.236 33.6139 173.111C33.4473 171.986 33.6715 170.83 34.2381 169.894C34.3638 169.687 34.5051 169.494 34.6604 169.316L28.9854 155.458L35.7631 156.582L40.1131 169.569C40.7603 170.441 41.0833 171.572 41.0124 172.716C40.9415 173.86 40.4823 174.926 39.7342 175.684C39.1025 176.318 38.3025 176.685 37.4656 176.726C36.6286 176.767 35.8044 176.479 35.1284 175.909H35.1284Z" fill="#FFB6B6"/>
<path d="M33.4099 168.342L24.3795 144.973L24.2891 126.516L27.1357 116.547C27.5218 115.194 28.1396 113.944 28.9524 112.871C29.7653 111.798 30.7566 110.924 31.868 110.3C32.9794 109.675 34.1881 109.314 35.4229 109.237C36.6576 109.159 37.8933 109.368 39.0569 109.85L39.1195 109.876L39.1458 109.947C39.251 110.229 41.6385 117.029 34.5567 131.017L33.1315 140.589L38.1325 162.529L33.4099 168.342Z" fill="#484848"/>
</g>
<defs>
<clipPath id="clip0_547_87">
<rect width="347" height="248" fill="white"/>
</clipPath>
</defs>
</svg>
